:SAMPLES-PER-SECOND 30
:FULLY-SPECIFIED
:DEGREES
943
root  -5.69752 38.5574 1.26746 -179.927 -62.0316 -173.639
RightUpLeg  2.26262 2.85396 9.85935
RightLeg  14.867 -8.8755 -3.66748
RightFoot  -19.0739 -0.0846551 0.660813
RightToes  -2.32832e-010 0 -3.6325e-017
Spine  7.87042 0.233921 -0.287701
Spine1  -7.81055 -1.26375 13.5873
HEad  5.37289 28.6623 -10.5859
LeftShoulder1  2.9794 -6.34585 -24.052
LeftArm  3.57442 25.2171 -55.8053
LeftForeArm  38.5523 5.02457 -16.1964
LeftHand  -0.0300144 5.36712 -2.28405
RightShoulder  1.03058 1.3771 14.2901
RightArm  30.4872 29.7101 82.0065
RightForeArm  86.9901 77.9576 42.3249
RightHand  0.497394 -9.10176 -16.1987
LeftUpLeg  -30.0651 24.3167 -5.19732
LeftLeg  22.9643 57.5939 14.6664
LeftFoot  -2.42321 -1.00614 13.0359
LeftToes  2.2737e-010 4.38529e-011 2.18788e-011
944
root  -6.06748 38.6373 1.29641 179.218 -64.6315 -173.572
RightUpLeg  4.23944 0.831273 9.61074
RightLeg  13.1768 -9.94251 -3.70929
RightFoot  -18.2048 -0.0567597 1.11414
RightToes  -2.32832e-010 0 -3.6325e-017
Spine  8.86314 -0.314491 2.46497
Spine1  -8.44642 -1.2386 10.4743
HEad  4.44354 26.2112 -10.5864
LeftShoulder1  2.96742 -6.78928 -22.535
LeftArm  9.02935 24.564 -57.6142
LeftForeArm  36.4401 2.44058 -16.8214
LeftHand  -0.0341866 5.55424 -2.01452
RightShoulder  0.910573 0.99486 13.3332
RightArm  26.4981 27.5408 80.8697
RightForeArm  101.433 80.3076 57.4543
RightHand  0.504459 -9.38345 -15.3287
LeftUpLeg  -27.8018 20.2856 -4.25908
LeftLeg  22.3218 59.8558 13.9307
LeftFoot  -2.84443 -0.958058 13.0622
LeftToes  2.2737e-010 4.38529e-011 2.18788e-011
945
root  -6.38092 38.709 1.3427 -179.95 -65.8564 -174.296
RightUpLeg  4.74215 1.1452 9.27944
RightLeg  12.5091 -10.3094 -4.08188
RightFoot  -17.4271 -0.032273 1.60661
RightToes  -2.32832e-010 0 -3.6325e-017
Spine  8.76277 0.0444537 3.85944
Spine1  -8.78601 -0.598561 8.90385
HEad  4.22166 23.9294 -11.0927
LeftShoulder1  2.79505 -6.62577 -21.226
LeftArm  11.2854 24.09 -58.8347
LeftForeArm  34.7998 -0.140923 -16.7388
LeftHand  -0.031358 5.31626 -1.47273
RightShoulder  0.809535 0.625521 12.6394
RightArm  24.0966 26.8175 78.69
RightForeArm  118.117 81.4999 74.643
RightHand  0.524156 -9.74957 -14.6163
LeftUpLeg  -26.4988 15.6242 -3.34973
LeftLeg  21.6783 62.5589 13.5455
LeftFoot  -3.3495 -0.851142 12.4223
LeftToes  2.2737e-010 4.38529e-011 2.18788e-011
946
root  -6.64326 38.737 1.33842 -177.855 -66.3971 -175.656
RightUpLeg  4.15974 1.4588 8.65411
RightLeg  12.6097 -10.1205 -4.29187
RightFoot  -17.2356 -0.0277955 1.72536
RightToes  -2.32832e-010 0 -3.6325e-017
Spine  7.47674 0.703833 3.33976
Spine1  -8.32325 -0.141631 9.66389
HEad  4.27723 22.8463 -12.1175
LeftShoulder1  2.65638 -6.18796 -21.0305
LeftArm  11.049 23.6928 -58.8544
LeftForeArm  34.24 -1.9167 -16.309
LeftHand  -0.0196572 4.62989 -1.86862
RightShoulder  0.762571 0.421628 12.4426
RightArm  23.2286 27.533 76.5062
RightForeArm  128.403 81.76 85.1026
RightHand  0.551531 -10.0626 -14.3484
LeftUpLeg  -26.9092 15.3157 -4.31807
LeftLeg  20.9184 62.186 12.7837
LeftFoot  -3.24516 -0.810441 11.6883
LeftToes  2.2737e-010 4.38529e-011 2.18788e-011
947
root  -6.82752 38.7612 1.31469 -176.813 -67.5317 -176.332
RightUpLeg  4.2506 0.300504 8.16993
RightLeg  11.9141 -10.3849 -4.01898
RightFoot  -17.0105 -0.0300244 1.72039
RightToes  -2.32832e-010 0 -3.6325e-017
Spine  6.9779 0.84844 3.08126
Spine1  -8.47927 -0.100319 10.3744
HEad  4.33732 22.5337 -13.1412
LeftShoulder1  2.60148 -6.01301 -20.9511
LeftArm  10.6583 23.4973 -58.08
LeftForeArm  33.3587 -2.57017 -16.1022
LeftHand  -0.00992602 4.23474 -2.75957
RightShoulder  0.747266 0.345104 12.4305
RightArm  22.3654 27.9299 75.0743
RightForeArm  130.946 81.7782 87.6719
RightHand  0.563381 -10.2553 -14.0884
LeftUpLeg  -26.9007 15.1131 -4.99247
LeftLeg  19.6108 61.9965 11.3662
LeftFoot  -2.61496 -0.864542 11.4941
LeftToes  2.2737e-010 4.38529e-011 2.18788e-011
948
root  -6.90857 38.8053 1.32238 -177.075 -68.8569 -176.26
RightUpLeg  5.11465 -0.737476 8.04295
RightLeg  10.6715 -10.7302 -3.61831
RightFoot  -16.5022 -0.0256832 1.91088
RightToes  -2.32832e-010 0 -3.6325e-017
Spine  7.85867 0.675022 3.95988
Spine1  -9.48779 -0.0587189 9.77051
HEad  4.04551 22.2648 -13.9479
LeftShoulder1  2.57986 -6.05395 -20.584
LeftArm  10.5269 23.3817 -57.0311
LeftForeArm  32.807 -2.24943 -16.1697
LeftHand  -0.0119794 4.43799 -2.90237
RightShoulder  0.72024 0.22347 12.33
RightArm  21.3414 27.9585 74.6689
RightForeArm  127.856 81.7431 84.7079
RightHand  0.556841 -10.3601 -13.6653
LeftUpLeg  -25.8732 12.5706 -4.35704
LeftLeg  17.8457 63.3892 9.7829
LeftFoot  -2.32068 -0.899356 11.5367
LeftToes  2.2737e-010 4.38529e-011 2.18788e-011
949
root  -6.91942 38.8382 1.33675 -177.217 -69.5912 -176.139
RightUpLeg  5.46685 -0.884684 8.02628
RightLeg  10.0295 -10.446 -3.41276
RightFoot  -16.1728 -0.0181383 2.16398
RightToes  -2.32832e-010 0 -3.6325e-017
Spine  8.39775 0.683695 4.67922
Spine1  -9.80975 0.0806829 9.23499
HEad  3.19213 21.8019 -14.6629
LeftShoulder1  2.56875 -6.03347 -20.5217
LeftArm  10.2074 23.0471 -55.9232
LeftForeArm  33.4296 -1.52401 -16.2599
LeftHand  -0.021948 4.86216 -2.22234
RightShoulder  0.675292 0.041576 12.0269
RightArm  20.7493 28.6562 74.8845
RightForeArm  122.954 81.6475 79.9078
RightHand  0.553712 -10.3814 -13.5432
LeftUpLeg  -25.3274 10.679 -3.89275
LeftLeg  16.4486 64.2416 8.64188
LeftFoot  -2.50066 -0.874025 11.4602
LeftToes  2.2737e-010 4.38529e-011 2.18788e-011
950
root  -6.91308 38.8301 1.31325 -176.869 -69.9805 -176.015
RightUpLeg  5.04889 -0.913385 8.02985
RightLeg  9.91693 -10.2175 -3.22015
RightFoot  -16.2498 -0.0127751 2.26903
RightToes  -2.32832e-010 0 -3.6325e-017
Spine  7.84807 0.88581 4.61805
Spine1  -9.1911 0.162548 9.60567
HEad  2.23109 21.2593 -15.1166
LeftShoulder1  2.56344 -5.97572 -20.6367
LeftArm  9.42491 22.6578 -55.0864
LeftForeArm  34.6843 -0.55517 -16.3178
LeftHand  -0.0283162 5.13239 -1.52434
RightShoulder  0.649893 -0.0423635 11.7273
RightArm  20.3879 29.7299 74.8388
RightForeArm  121.035 81.5934 77.9396
RightHand  0.564816 -10.3809 -13.7877
LeftUpLeg  -25.9017 10.993 -4.17077
LeftLeg  16.316 63.7241 8.39722
LeftFoot  -2.67534 -0.843698 11.3089
LeftToes  2.2737e-010 4.38529e-011 2.18788e-011
951
root  -6.89675 38.7943 1.26618 -176.759 -70.3993 -175.668
RightUpLeg  4.75428 -1.12765 8.14455
RightLeg  9.59623 -10.5249 -2.93995
RightFoot  -16.4745 -0.00932414 2.28048
RightToes  -2.32832e-010 0 -3.6325e-017
Spine  7.41424 1.00976 4.47383
Spine1  -8.93847 0.202244 9.98056
HEad  1.67911 20.847 -15.1249
LeftShoulder1  2.54325 -6.0103 -20.3051
LeftArm  8.33003 22.7567 -54.687
LeftForeArm  35.7534 0.662324 -16.3812
LeftHand  -0.0297441 5.18895 -1.13862
RightShoulder  0.663631 0.027809 11.7409
RightArm  19.843 30.2953 74.2995
RightForeArm  122.249 81.6291 79.1293
RightHand  0.575808 -10.4738 -13.7927
LeftUpLeg  -26.7668 12.1199 -4.70738
LeftLeg  16.8683 62.4111 8.76826
LeftFoot  -2.72265 -0.82573 11.1381
LeftToes  2.2737e-010 4.38529e-011 2.18788e-011
952
root  -6.84687 38.7623 1.22995 -176.852 -70.6605 -175.513
RightUpLeg  4.89644 -1.20561 8.29141
RightLeg  9.13539 -10.7071 -2.80948
RightFoot  -16.6902 -0.0092749 2.22122
RightToes  -2.32832e-010 0 -3.6325e-017
Spine  7.78302 1.01893 4.515
Spine1  -9.32857 0.27598 9.87601
HEad  1.34667 20.6739 -15.0621
LeftShoulder1  2.52084 -6.07054 -19.8735
LeftArm  7.25575 23.3848 -54.2598
LeftForeArm  36.4984 1.78307 -16.3958
LeftHand  -0.0302818 5.21526 -0.910672
RightShoulder  0.689081 0.118678 11.9981
RightArm  19.4746 30.5993 74.0011
RightForeArm  122.209 81.6266 79.2012
RightHand  0.572706 -10.6172 -13.373
LeftUpLeg  -27.1419 12.6699 -4.99422
LeftLeg  17.2144 61.3174 9.12522
LeftFoot  -2.79764 -0.801444 10.9199
LeftToes  2.2737e-010 4.38529e-011 2.18788e-011
953
root  -6.76651 38.7426 1.20329 -176.56 -70.6948 -175.893
RightUpLeg  4.97213 -1.1112 8.34574
RightLeg  8.98379 -10.6646 -2.91031
RightFoot  -16.938 -0.0164516 2.01033
RightToes  -2.32832e-010 0 -3.6325e-017
Spine  8.11105 1.01481 4.38506
Spine1  -9.30693 0.27997 9.82306
HEad  0.813612 20.5935 -15.3298
LeftShoulder1  2.54092 -6.07737 -20.0783
LeftArm  6.69024 23.9399 -53.3925
LeftForeArm  36.8277 2.54016 -16.3849
LeftHand  -0.0325129 5.35114 -0.816341
RightShoulder  0.694883 0.126282 12.1315
RightArm  19.533 31.2226 74.3642
RightForeArm  119.7 81.5487 76.7764
RightHand  0.560873 -10.6338 -13.085
LeftUpLeg  -27.1799 12.7329 -5.0853
LeftLeg  17.1282 61.0215 9.06121
LeftFoot  -2.77476 -0.794688 10.7997
LeftToes  2.2737e-010 4.38529e-011 2.18788e-011
954
root  -6.68027 38.7287 1.17379 -176.093 -70.8071 -176.355
RightUpLeg  4.81219 -1.05919 8.37108
RightLeg  9.03508 -10.9674 -3.01238
RightFoot  -17.1561 -0.0252889 1.78825
RightToes  -2.32832e-010 0 -3.6325e-017
Spine  7.90842 0.9972 4.23276
Spine1  -8.63675 0.178245 9.87834
HEad  0.189826 20.3868 -15.7106
LeftShoulder1  2.597 -6.1104 -20.6051
LeftArm  6.89765 24.0993 -52.5137
LeftForeArm  36.5942 3.15722 -16.4517
LeftHand  -0.0356052 5.53309 -0.832928
RightShoulder  0.683399 0.0807925 12.0461
RightArm  19.4943 31.8515 74.8046
RightForeArm  118.461 81.5043 75.5403
RightHand  0.557125 -10.5305 -13.2507
LeftUpLeg  -27.2084 12.5509 -5.12104
LeftLeg  16.7529 61.3572 8.68124
LeftFoot  -2.52746 -0.829079 10.9193
LeftToes  2.2737e-010 4.38529e-011 2.18788e-011
955
root  -6.59522 38.7219 1.14665 -176.063 -71.0583 -176.403
RightUpLeg  4.74372 -1.10327 8.44547
RightLeg  8.97316 -11.3079 -2.96235
RightFoot  -17.2409 -0.0240272 1.79872
RightToes  -2.32832e-010 0 -3.6325e-017
Spine  7.7788 0.950098 4.42516
Spine1  -8.16686 0.120295 9.63737
HEad  -0.17838 20.1205 -15.8727
LeftShoulder1  2.62398 -6.21528 -20.5915
LeftArm  7.29587 24.2744 -52.3242
LeftForeArm  36.3052 3.82514 -16.5552
LeftHand  -0.0376634 5.65109 -0.793616
RightShoulder  0.670682 0.0195912 12.015
RightArm  19.0575 32.0499 74.7651
RightForeArm  120.288 81.5678 77.4289
RightHand  0.570073 -10.5329 -13.5201
LeftUpLeg  -27.1566 11.9554 -4.94552
LeftLeg  16.3474 61.8881 8.37247
LeftFoot  -2.32273 -0.869888 11.1702
LeftToes  2.2737e-010 4.38529e-011 2.18788e-011
956
root  -6.50688 38.7233 1.12299 -176.458 -71.1889 -176.125
RightUpLeg  4.84123 -1.12699 8.53941
RightLeg  8.84944 -11.0709 -2.82156
RightFoot  -17.2538 -0.0160067 1.95196
RightToes  -2.32832e-010 0 -3.6325e-017
Spine  8.01236 0.945668 4.66348
Spine1  -8.15336 0.163044 9.40769
HEad  -0.330979 20.0184 -15.9984
LeftShoulder1  2.59359 -6.28848 -20.042
LeftArm  6.99238 24.8376 -52.8174
LeftForeArm  36.5948 4.29616 -16.5546
LeftHand  -0.0387566 5.71233 -0.74592
RightShoulder  0.658717 -0.0707624 12.1881
RightArm  18.7092 32.1403 74.5103
RightForeArm  122.581 81.6343 79.8307
RightHand  0.5902 -10.7033 -13.5335
LeftUpLeg  -27.0386 11.4188 -4.66435
LeftLeg  16.1087 62.1109 8.28978
LeftFoot  -2.40518 -0.876143 11.3582
LeftToes  2.2737e-010 4.38529e-011 2.18788e-011
957
root  -6.42177 38.7237 1.09008 -176.826 -71.1729 -175.819
RightUpLeg  4.86316 -1.09741 8.65504
RightLeg  8.79682 -10.6822 -2.69017
RightFoot  -17.2891 -0.0153324 1.95811
RightToes  -2.32832e-010 0 -3.6325e-017
Spine  8.09258 1.01394 4.49815
Spine1  -8.00609 0.173205 9.76651
HEad  -0.515133 20.0508 -16.3291
LeftShoulder1  2.55874 -6.27051 -19.7122
LeftArm  6.11643 25.4961 -53.3398
LeftForeArm  37.1391 4.37037 -16.4632
LeftHand  -0.0392594 5.73344 -0.850985
RightShoulder  0.646409 -0.162619 12.3675
RightArm  18.7491 32.4871 74.4663
RightForeArm  123.143 81.6485 80.3795
RightHand  0.593502 -10.8081 -13.3551
LeftUpLeg  -27.0454 11.3974 -4.49914
LeftLeg  15.9918 62.027 8.21746
LeftFoot  -2.61524 -0.85931 11.4286
LeftToes  2.2737e-010 4.38529e-011 2.18788e-011
